
<svg version="1.0" xmlns="http://www.w3.org/2000/svg"
 width="512.000000pt" height="512.000000pt" viewBox="0 0 512.000000 512.000000"
 preserveAspectRatio="xMidYMid meet">

<g transform="translate(0.000000,512.000000) scale(0.100000,-0.100000)"
fill="#000000" stroke="none">
<path d="M1309 4021 c-47 -48 -37 -130 21 -164 26 -16 127 -17 1230 -17 1103
0 1204 1 1230 17 58 34 68 116 21 164 l-29 29 -1222 0 -1222 0 -29 -29z"/>
<path d="M2534 3303 c-11 -2 -167 -151 -347 -331 l-327 -328 0 -43 c0 -62 41
-101 106 -101 l47 0 219 217 218 217 0 -674 c0 -765 -3 -732 76 -759 48 -17
84 -4 118 42 21 28 21 38 26 708 l5 679 200 -201 c110 -110 212 -207 227 -215
46 -24 86 -18 124 20 27 27 34 42 34 72 0 36 -13 51 -312 354 -281 284 -357
353 -385 349 -4 -1 -17 -4 -29 -6z"/>
</g>
</svg>
